<mxfile host="app.diagrams.net" modified="2024-04-19T09:05:41.111Z" agent="Mozilla/5.0 (Windows NT 10.0; Win64; x64) AppleWebKit/537.36 (KHTML, like Gecko) Chrome/123.0.0.0 Safari/537.36 Edg/123.0.0.0" version="24.2.5" etag="HaX4LprvGm4dDtawD8lY" type="github">
  <diagram name="第 1 页" id="5BR1FqQY19MZp881MkqP">
    <mxGraphModel>
      <root>
        <mxCell id="0" />
        <mxCell id="1" parent="0" />
      </root>
    </mxGraphModel>
  </diagram>
</mxfile>
